<?xml version="1.0" encoding="utf-8"?>
<!-- Generator: Adobe Illustrator 23.0.1, SVG Export Plug-In . SVG Version: 6.00 Build 0)  -->
<svg version="1.1" id="Layer_1" xmlns="http://www.w3.org/2000/svg" xmlns:xlink="http://www.w3.org/1999/xlink" x="0px" y="0px"
	 viewBox="0 0 87.97 102.93" style="enable-background:new 0 0 87.97 102.93;" xml:space="preserve">
<style type="text/css">
	.st0{fill:#FFFFFF;}
</style>
<path class="st0" d="M40.77,83.43c-1.35,3.73-2.28,7.47-2.28,11c0,2.28,0.52,4.2,1.82,5.19c0.21,0.16,0.31,0.36,0.31,0.62
	c0,1.09-2.07,2.7-4.41,2.7c-3.63,0-4.98-3.42-4.98-6.79c0-9.18,7.47-25.1,9.91-31.74c-4.67,7.42-11.51,19.71-12.5,21.21
	c-0.26,0.42-0.62,0.57-0.99,0.57c-1.76,0-4.3-3.68-4.3-5.08l4.05-13.54c-5.55,8.77-10.84,19.09-12.6,23.29
	c-0.36,0.83-0.78,0.99-1.19,0.99c-1.24,0-4.51-1.97-4.51-3.47C16.7,73.01,26.4,54.65,26.97,52.42c0.36-1.4,1.97-1.81,3.11-1.81
	c2.44,0,6.02,1.71,6.02,4.3c0,0.41-0.1,0.88-0.31,1.35l-4.62,15.51c3.32-3.94,14.16-20.54,14.78-21.52c0.36-0.62,0.78-0.83,1.3-0.83
	c3.58,0,6.43,3.47,6.43,4.98c0,0.73-0.1,0.62-0.99,2.39C46.47,69.01,43.2,76.64,40.77,83.43z M69.87,71.97
	c-1.4,2.23-4.46,6.53-7.42,10.58c-3.58,4.88-8.56,9.02-11.83,9.02c-1.97,0-6.9-2.96-6.9-6.9c0-7.78,7.36-19.35,13.02-19.35
	c1.76,0,2.07,2.75,3.63,3.79c1.04,0.67,3.01,0.93,3.01,3.58c0,2.49-10.42,9.39-14.89,11.72c-0.1,0.73-0.16,1.45-0.16,2.13
	c0,1.14,0.52,1.82,1.66,1.82c3.58,0,7.68-3.79,11.15-7.78c1.5-1.71,6.59-7.99,7.52-9.28c0.16-0.21,0.26-0.31,0.42-0.31
	C69.55,70.98,69.87,71.97,69.87,71.97z M49.38,81.41c6.33-4.31,8.3-7.52,9.28-9.49c-0.16-0.05-0.36-0.1-0.52-0.1
	C54.51,72.7,51.04,76.9,49.38,81.41z M67.27,81.41c-1.66,0-3.42,3.63-3.42,5.24c0,2.13,2.65,4.05,4.72,4.05
	c2.49,0,3.68-3.63,3.68-5.76C72.25,83.17,68.88,81.41,67.27,81.41z M82.21,51.43c-0.88,0-2.02,0.26-2.49,1.45
	C79.25,54.7,71.63,73.37,69.5,77.1c-0.1,0.21-0.16,0.47-0.16,0.67c0,1.14,1.45,2.33,2.65,2.33c0.52,0,1.04-0.21,1.3-0.78
	c4.1-8.09,9.34-14.73,14.31-22.25c0.26-0.47,0.36-0.88,0.36-1.3C87.97,53.3,83.97,51.43,82.21,51.43z M12.15,57.75
	c-4.05,0-5.5-4.17-5.5-7.81c0-1.16,0.12-2.43,0.29-3.76c-4.8,0-6.94-4.51-6.94-9.08C0,23.67,13.42,0,21.58,0
	c2.6,0,5.27,1.45,5.27,4.34c0,0.46-0.12,0.98-0.23,1.5C20.02,7,5.67,26.04,5.67,37.44c0,2.26,0.75,3.99,2.26,3.99h0.06
	C9.95,33.68,14.18,23.95,19.85,14c2.08-3.65,7.41-9.37,10.76-9.37c1.68,0,2.89,1.5,2.89,5.44c0,6.83-11.05,31.82-21.12,36.11
	c0.46,3.18,1.79,5.84,4.28,7.75c0.23,0.17,0.35,0.41,0.35,0.69C17.01,55.89,14.7,57.75,12.15,57.75z M12.73,38.54
	c3.53-3.41,12.04-17.65,12.04-24.48c0-1.04-0.23-1.68-0.64-1.68c-0.35,0-0.81,0.4-1.33,1.39C18.52,21.58,14.18,30.67,12.73,38.54z
	 M32.63,20.14c-1.22,3.12-5.9,13.13-5.9,19.85c0,3.76,1.22,5.21,2.95,5.21c2.26,0,5.38-2.43,7.98-5.55c0.46,2.66,2.31,5.96,4.4,5.96
	c0.52,0,1.04-0.17,1.56-0.64c2.2-1.85,5.44-6.02,7.29-8.56c0.11-0.15,0.22-0.31,0.33-0.46c-0.25,0.95-0.39,1.79-0.39,2.48
	c0,2.66,2.08,7.17,4.51,7.17c0.52,0,1.04-0.17,1.56-0.64c2.2-1.85,5.44-6.02,7.29-8.56c2.51-3.45,5.15-7.13,6.94-9.78
	c1.38-0.38,2.83-0.93,4.28-0.93c0.46,0,0.64,0.12,0.64,0.46c0,1.68-6.08,4.98-7.81,6.54c-0.93,0.87-1.04,1.27-1.04,1.62
	c0,1.39,1.79,3.18,2.95,3.18c0.41,0,1.45-0.17,2.43-0.17s1.91,0.17,1.91,0.87c0,3.82-6.65,14-9.55,14c-0.17,0-0.29-0.12-0.29-0.46
	c0-2.89,5.21-8.51,7.7-11.46c0.12-0.17,0.23-0.35,0.23-0.46c0-0.23-0.23-0.29-0.58-0.29c-0.23,0-0.58,0.06-0.93,0.17
	c-3.7,1.04-10.76,9.95-10.76,11.8c0,2.43,2.2,5.73,4.69,5.73c4.92,0,16.26-13.31,16.26-20.19c0-2.37-1.39-3.99-4.92-3.99
	c-0.81,0-1.74,0.12-2.84,0.29c1.04-2.08,11.92-7.06,12.21-8.45c0.12-0.64,0.29-1.62,0.29-2.6c0-2.2-0.64-4.69-3.12-4.69
	c-2.55,0-5.03,1.04-8.51,1.04c-0.98,0-2.08-0.12-2.08-1.27c0-0.12,0-0.17-0.06-0.17c-0.58,0-4.74,5.61-4.74,8.33
	c0,0.78,0.33,1.32,1.22,1.42c-2.1,2.62-4.87,6.01-5.97,7.26c-2.72,3.47-5.44,5.73-6.08,6.19c-0.17,0.12-0.29,0.17-0.4,0.17
	c-0.35,0-0.52-0.4-0.52-0.93c0-1.16,3.82-8.45,8.04-14.81c0.23-0.35,0.41-0.87,0.41-1.39c0-1.97-2.6-3.88-4.34-3.88
	c-0.98,0-2.26,0.29-2.78,1.62c-0.88,2.29-2.12,5.04-3.27,7.75c-1.74,2.14-3.54,4.33-4.37,5.27c-2.72,3.47-5.44,5.73-6.08,6.19
	c-0.17,0.12-0.29,0.17-0.4,0.17c-0.29,0-0.4-0.17-0.4-0.58c0-2.14,3.88-9.37,7.17-14.23c0.4-0.64,0.64-1.21,0.64-1.68
	c0-2.72-5.96-3.12-5.96-3.12c-1.45,1.79-4.69,8.79-6.13,13.71c-2.37,3.93-5.27,7.06-6.77,7.06c-0.64,0-1.04-0.58-1.04-1.97
	c0-5.5,10.36-16.14,10.36-19.27c0-1.22-2.02-1.79-4.11-1.79C34.89,18.69,33.03,19.15,32.63,20.14z M66.3,17.94
	c1.56,0,3.65-3.47,3.65-4.98s-1.97-4.11-4.57-4.11c-2.26,0-4.63,3.36-4.63,5.38C60.75,16.03,64.33,17.94,66.3,17.94z"/>
</svg>
