<?xml version="1.0" encoding="utf-8"?>
<!-- Generator: Adobe Illustrator 23.0.1, SVG Export Plug-In . SVG Version: 6.00 Build 0)  -->
<svg version="1.1" id="Layer_1" xmlns="http://www.w3.org/2000/svg" xmlns:xlink="http://www.w3.org/1999/xlink" x="0px" y="0px"
	 viewBox="0 0 92.81 47.21" style="enable-background:new 0 0 92.81 47.21;" xml:space="preserve">
<style type="text/css">
	.st0{fill:#FFFFFF;}
</style>
<path class="st0" d="M39.87,4c0,8.77-17.41,32.79-20.54,37.69c-0.3,0.39-1.35,0.7-2.52,0.7c-1.91,0-4.13-0.74-4.13-2.87
	c0-3.34,1.3-6.9,2.34-10.29c-3.39,4.34-5.6,9.38-8.69,14.2c-0.61,0.91-1.35,1.3-2.08,1.3C2.21,44.73,0,41.99,0,39.91
	c0-4.39,7.21-18.11,10.07-27.92c0.35-1.17,1.69-1.52,2.65-1.52c1.61,0,4.73,1.35,4.73,3.21c0,0.48-0.26,0.82-0.52,1.13
	c-3.39,4.56-9.81,16.72-11.03,19.98c-0.04,0.13-0.04,0.17-0.04,0.26c0,0.22,0.09,0.3,0.26,0.3s0.39-0.09,0.61-0.26
	c4.04-5.21,8.77-14.33,12.77-19.67c0.43-0.61,1-0.87,1.52-0.87c1.61,0,3.34,2.26,3.34,3.6c0,0.52-0.22,0.87-0.65,1.22
	c-3.91,5.73-5.39,11.46-6.21,13.68c-0.04,0.13-0.04,0.17-0.04,0.26c0,0.22,0.09,0.3,0.26,0.3c0.17,0,0.39-0.09,0.61-0.26
	c4.43-4.43,13.85-20.24,13.85-28.53c0-1-0.13-1.87-0.43-2.61c-0.13-0.35-0.39-0.56-0.39-0.78c0-0.17,0.17-0.3,0.61-0.48
	C33,0.52,34.61,0,36.13,0C38.08,0,39.87,0.87,39.87,4z M35.01,20.06c0,1.35,2.69,2.78,4.17,2.78c1.17,0,2.74-2.61,2.74-3.73
	s-1.48-3.08-3.43-3.08C36.79,16.02,35.01,18.54,35.01,20.06z M50.6,40.39c0-4.21,3.04-9.21,5.86-12.77
	c0.43-0.52,0.61-1.04,0.61-1.43c0-1.21-1.65-1.87-3.21-2c-5.65,1.95-13.16,15.33-14.11,16.16c0-2.3,3.65-8.64,8.03-12.98
	c0.65-0.48,0.91-1,0.91-1.48c0-1.39-1.95-2.65-3.04-2.65c-2.23,0-5.61,4.97-7.65,10.07c-0.61,0.74-1.14,1.37-1.47,1.74
	c-2.04,2.61-4.08,4.3-4.56,4.65c-0.13,0.09-0.22,0.13-0.3,0.13c-0.26,0-0.39-0.3-0.39-0.7c0-0.87,2.87-6.34,6.04-11.12
	c0.17-0.26,0.3-0.65,0.3-1.04c0-1.48-1.95-2.91-3.26-2.91c-0.74,0-1.69,0.22-2.08,1.22c-1.56,4.08-4.69,10.16-4.69,12.94
	c0,2,1.56,5.38,3.39,5.38c0.39,0,0.78-0.13,1.17-0.48c1.27-1.07,2.99-3.16,4.36-4.94c-0.18,0.9-0.27,1.75-0.27,2.5
	c0,1.95,2.56,3.65,3.56,3.65c0.48,0,0.83-0.26,1.04-0.87c1.43-4.34,6.77-12.03,11.38-14.16c-2.95,3.56-6.82,8.69-6.82,13.2
	c0,3.52,2.26,4.69,4.3,4.69c1.61,0,3.04-0.74,3.04-1.61c0-0.13-0.09-0.3-0.26-0.48C51.16,43.77,50.6,42.17,50.6,40.39z M92.81,27.84
	c-1.17,1.87-3.73,5.52-6.21,8.86c-1.95,2.69-6.47,7.86-9.21,7.86c-1.48,0-2.04-1.04-2.04-2.65c0-3.43,2.56-9.29,4.26-12.64
	c-0.43-0.04-0.87-0.09-1.26-0.17c-0.56,0.91-1.43,2.21-2.95,4.26c0,0-0.22,0.04-0.43,0.04c-0.01,0-0.02,0-0.03,0
	c-0.78,1.09-1.59,2.21-2.4,3.3c-2.48,3.39-5.12,7.04-6.73,7.04c-1.3,0-2.61-1.04-2.74-3.91c-1.69,1.65-3.82,4.08-5.12,4.08
	c-1.65,0-3.86-1.35-3.86-3.13c0-6.82,7.17-16.33,9.81-18.46c0.48-0.26,0.78-0.35,1.09-0.35c1.26,0,2.52,1.22,3.21,2.26
	c1.95-4.13,3.65-8.03,5.3-12.07c0.39-1,1.35-1.22,2.08-1.22c1.3,0,3.43,1.61,3.43,3.08c0,0.39-0.13,0.78-0.3,1.04
	C74.01,21.32,66.1,36.56,66.1,39.3c0,0.52,0.22,0.74,0.48,0.74c0.3,0,0.69-0.26,1.04-0.61c0.43-0.39,2.08-2.39,3.82-4.39
	c0.96-1.09,3.63-4.37,5.21-6.37c-1.81-0.66-2.56-1.73-2.56-2.88c0-2.26,3.08-4.82,6.82-4.86c1.13,0,1.48,0.78,1.48,1.65
	c0,1.26-0.69,2.82-0.78,2.82c1.22,0.91,4.39,1.13,4.39,2.78c0,0.39-0.17,0.83-0.56,1.39c-1.48,1.95-5.95,7.25-5.95,10.12
	c0,0.52,0.22,0.74,0.48,0.74c0.3,0,0.69-0.26,1.04-0.61c0.43-0.39,2.78-2.78,4.52-4.78c1.26-1.43,5.52-6.69,6.3-7.77
	c0.13-0.17,0.22-0.26,0.35-0.26C92.55,27.01,92.81,27.84,92.81,27.84z M64.84,28.49c-1.43,0-7.6,9.55-7.6,11.86
	c0,0.39,0.17,0.56,0.43,0.56c0.22,0,0.43-0.09,0.69-0.26c1.48-1.22,4.52-5.95,6.12-8.82l1-2.04C65.76,29.14,65.32,28.49,64.84,28.49
	z"/>
</svg>
